Ostrich_Walking_Kinematics
version=1
nRows=14
nColumns=28
inDegrees=no
endheader
time	/jointset/pelvis/pelvis_tilt/value	/jointset/pelvis/pelvis_list/value	/jointset/pelvis/pelvis_rotation/value	/jointset/pelvis/pelvis_tx/value	/jointset/pelvis/pelvis_ty/value	/jointset/pelvis/pelvis_tz/value	/jointset/R_hip/R_hip_extension/value	/jointset/R_hip/R_hip_abduction/value	/jointset/R_hip/R_hip_rotation/value	/jointset/knee/R_knee_angle/value	/jointset/knee/R_knee_varus/value	/jointset/knee/R_knee_rotation/value	/jointset/R_ankle/R_ankle_angle/value	/jointset/R_ankle/R_ankle_abduction/value	/jointset/R_ankle/R_ankle_rotation/value	/jointset/R_mtp/R_mtp_angle/value	/jointset/R_mtp/R_mtp_abduction/value	/jointset/R_mtp/R_mtp_rotation/value	/jointset/L_hip/L_hip_extension/value	/jointset/L_hip/L_hip_abduction/value	/jointset/L_hip/L_hip_rotation/value	/jointset/knee_0/L_knee_angle/value	/jointset/knee_0/L_knee_varus/value	/jointset/knee_0/L_knee_rotation/value	/jointset/L_ankle/L_ankle_angle/value	/jointset/L_ankle/L_ankle_abduction/value	/jointset/L_mtp/L_mtp_angle/value
     -0.03500000	      0.13776989	     -0.48591130	      0.06797499	      0.68715333	      0.81225649	     -0.96474333	      0.47192539	      0.22673055	     -0.85371617	     -1.33120334	     -0.33878004	     -0.11529529	      0.23438027	      0.10587574	      0.06166772	     -0.62047618	      0.53407075	      0.14998952	      0.75647224	     -0.23253022	     -0.78925534	     -1.15202784	     -0.18876434	     -0.09384694	      0.30928398	      0.19547106	     -0.63009295
     -0.03100000	      0.13658307	     -0.45327364	      0.06261948	      0.69247733	      0.84444005	     -0.96495133	      0.48024712	      0.20055850	     -0.83096406	     -1.34746981	     -0.34002272	     -0.11783369	      0.25607122	      0.10976783	      0.05058348	     -0.67686428	      0.52032454	      0.14114280	      0.76626703	     -0.24493602	     -0.76419939	     -1.16161319	     -0.18670695	     -0.08982151	      0.31113403	      0.19393517	     -0.62778213
     -0.02700000	      0.13539624	     -0.42063599	      0.05726397	      0.69780133	      0.87458785	     -0.96515933	      0.48856885	      0.17438645	     -0.80821194	     -1.36373628	     -0.34126539	     -0.12037210	      0.27776217	      0.11365991	      0.03949924	     -0.73325238	      0.50657832	      0.13229607	      0.77606182	     -0.25734182	     -0.73914345	     -1.17119854	     -0.18464955	     -0.08579608	      0.31298408	      0.19239928	     -0.62547132
     -0.02300000	      0.13420942	     -0.38799833	      0.05190847	      0.70312533	      0.87478785	     -0.96536733	      0.49689058	      0.14821440	     -0.78545983	     -1.38000275	     -0.34250807	     -0.12291051	      0.29945312	      0.11755200	      0.02841501	     -0.78964048	      0.49283211	      0.12344935	      0.78585660	     -0.26974762	     -0.71408750	     -1.18078389	     -0.18259216	     -0.08177065	      0.31483413	      0.19086339	     -0.62316050
     -0.01900000	      0.13302260	     -0.35536067	      0.04655296	      0.70844933	      0.92779192	     -0.96557533	      0.50521231	      0.12204235	     -0.76270772	     -1.39626922	     -0.34375074	     -0.12544891	      0.32114407	      0.12144408	      0.01733077	     -0.84602857	      0.47908590	      0.11460262	      0.79565139	     -0.28215342	     -0.68903155	     -1.19036924	     -0.18053476	     -0.07774523	      0.31668418	      0.18932750	     -0.62084969
     -0.01500000	      0.13183577	     -0.32272301	      0.04119745	      0.71377333	      0.95123650	     -0.96578333	      0.51353404	      0.09587030	     -0.73995561	     -1.41253569	     -0.34499342	     -0.12798732	      0.34283502	      0.12533617	      0.00624653	     -0.90241667	      0.46533969	      0.10575590	      0.80544618	     -0.29455922	     -0.66397561	     -1.19995459	     -0.17847737	     -0.07371980	      0.31853422	      0.18779161	     -0.61853887
     -0.01100000	      0.13064895	     -0.29008536	      0.03584194	      0.71909733	      0.97226727	     -0.96599133	      0.52185577	      0.06969825	     -0.71720350	     -1.42880216	     -0.34623609	     -0.13052573	      0.36452598	      0.12922825	     -0.00483770	     -0.95880477	      0.45159347	      0.09690917	      0.81524097	     -0.30696502	     -0.63891966	     -1.20953993	     -0.17641998	     -0.06969437	      0.32038427	      0.18625572	     -0.61622805
     -0.00700000	      0.12946212	     -0.25744770	      0.03048643	      0.72442133	      1.00626384	     -0.96619933	      0.53017750	      0.04352620	     -0.69445138	     -1.44506863	     -0.34747876	     -0.13306413	      0.38621693	      0.13312033	     -0.01592194	     -1.01519287	      0.43784726	      0.08806245	      0.82503575	     -0.31937082	     -0.61386371	     -1.21912528	     -0.17436258	     -0.06566894	      0.32223432	      0.18471983	     -0.61391724
     -0.00300000	      0.12798674	     -0.22808312	      0.02544746	      0.72956600	      1.00663051	     -0.96644200	      0.53751952	      0.02070247	     -0.67296405	     -1.45960838	     -0.34749505	     -0.13618455	      0.40681530	      0.13674166	     -0.02617366	     -1.06915030	      0.42316904	      0.07970674	      0.83709133	     -0.33501944	     -0.58372886	     -1.22954257	     -0.17212821	     -0.06177104	      0.32350376	      0.18371685	     -0.60994370
      0.00100000	      0.12679992	     -0.19544546	      0.02009195	      0.73489000	      1.02002358	     -0.96665000	      0.54584125	     -0.00546958	     -0.65021194	     -1.47587485	     -0.34873773	     -0.13872296	      0.42850626	      0.14063374	     -0.03725789	     -1.12553840	      0.40942283	      0.07086002	      0.84688611	     -0.34742524	     -0.55867291	     -1.23912792	     -0.17007082	     -0.05774561	      0.32535381	      0.18218096	     -0.60763289
      0.00500000	      0.12734446	     -0.14316936	      0.01283725	      0.74129000	      1.02877458	     -0.96665000	      0.56004125	     -0.05173156	     -0.61987114	     -1.50250159	     -0.35733871	     -0.13776931	      0.45675267	      0.14615038	     -0.05333726	     -1.19651047	      0.40126865	      0.05906718	      0.84311620	     -0.34037411	     -0.56409041	     -1.24372162	     -0.16907528	     -0.05295503	      0.33068753	      0.17744763	     -0.61529837
      0.00900000	      0.12442627	     -0.13017015	      0.00938094	      0.74553800	      1.03846004	     -0.96706600	      0.56248471	     -0.05781368	     -0.60470772	     -1.50840779	     -0.35122308	     -0.14379977	      0.47188816	      0.14841791	     -0.05942637	     -1.23831459	      0.38193040	      0.05316657	      0.86647569	     -0.37223684	     -0.50856102	     -1.25829861	     -0.16595603	     -0.04969476	      0.32905391	      0.17910918	     -0.60301126
      0.01300000	      0.12163479	     -0.15715294	      0.01636686	      0.75130400	      1.03254968	     -0.96775800	      0.56422655	     -0.03615240	     -0.63135889	     -1.52019923	     -0.36074210	     -0.15253514	      0.50059534	      0.15432027	     -0.06036221	     -1.30676990	      0.36467608	      0.04254415	      0.84820907	     -0.34782318	     -0.54185492	     -1.25376425	     -0.16983624	     -0.05739655	      0.32811143	      0.18159802	     -0.60346853
      0.01700000	      0.11858465	     -0.16086002	      0.01635939	      0.75701200	      1.03286968	     -0.96725400	      0.56417070	     -0.02952713	     -0.63596656	     -1.52653129	     -0.36619451	     -0.16008125	      0.52686603	      0.16316560	     -0.06024493	     -1.37238730	      0.34173547	      0.03204704	      0.83174015	     -0.33182898	     -0.57214685	     -1.25369444	     -0.17309582	     -0.05656438	      0.33014299	      0.18117216	     -0.60846716
